<?xml version="1.0" encoding="utf-8"?>
<!-- Generator: Adobe Illustrator 22.1.0, SVG Export Plug-In . SVG Version: 6.00 Build 0)  -->
<svg version="1.1" id="Laag_1" xmlns="http://www.w3.org/2000/svg" xmlns:xlink="http://www.w3.org/1999/xlink" x="0px" y="0px"
	 viewBox="0 0 50 50" style="enable-background:new 0 0 50 50;" xml:space="preserve">
<style type="text/css">
	.st0{fill:#23375D;}
</style>
<g id="Icons_1_">
	<g>
		<g>
			<polygon class="st0" points="43.6,47.7 22.2,47.7 22.2,30.9 12.1,30.9 12.1,47.7 6.4,47.7 6.4,26 8.2,26 8.2,45.9 10.2,45.9 
				10.2,29 24,29 24,45.9 41.8,45.9 41.8,26 43.6,26 			"/>
		</g>
		<g>
			<polygon class="st0" points="12.1,17.2 10.2,17.2 10.2,9 17,9 17,12 15.1,12 15.1,10.8 12.1,10.8 			"/>
		</g>
		<path class="st0" d="M36.6,30.9v7.2h-8.4v-7.2H36.6L36.6,30.9z M38.5,29H26.4v10.9h12.1V29L38.5,29z"/>
		<g>
			<path class="st0" d="M4.7,30.4l-3.2-4.6L25,2.3l23.5,23.5l-3.2,4.6L25,10.2L4.7,30.4z M25,7.6l20,20l1.1-1.6L25,4.9L3.9,26
				L5,27.6L25,7.6z"/>
		</g>
		<g>
			<rect x="18.6" y="38.8" class="st0" width="2.5" height="1.8"/>
		</g>
		<g>
			<rect x="25.6" y="38" class="st0" width="13.8" height="1.8"/>
		</g>
	</g>
</g>
</svg>
