<?xml version="1.0" encoding="utf-8"?>
<!-- Generator: Adobe Illustrator 22.1.0, SVG Export Plug-In . SVG Version: 6.00 Build 0)  -->
<svg version="1.1" id="Laag_1" xmlns="http://www.w3.org/2000/svg" xmlns:xlink="http://www.w3.org/1999/xlink" x="0px" y="0px"
	 viewBox="0 0 50 50" style="enable-background:new 0 0 50 50;" xml:space="preserve">
<style type="text/css">
	.st0{fill:#23375D;}
</style>
<g id="Icons_2_">
	<g>
		<g>
			<g>
				<g>
					<path class="st0" d="M28.2,37.9c-0.4,0-0.7-0.1-1.1-0.3l-2-1c-0.1,0-0.2-0.1-0.2-0.1L23.4,36l0.1-0.1L20,34.1l0,0l-3.5-1.8l0,0
						l-3.5-1.8l0,0.2l-1.3-0.9c-0.5-0.3-0.9-0.7-1.2-1.2l1.2-0.8l0.5-0.9c0.3-0.6,0.8-1,1.4-1.2c0.6-0.2,1.2-0.2,1.8,0.1
						c0.6,0.3,1,0.8,1.2,1.4c0,0,0,0,0,0l0,0c0.3-0.6,0.8-1,1.4-1.2c0.6-0.2,1.2-0.2,1.8,0.1c0.6,0.3,1,0.8,1.2,1.4c0,0,0,0.1,0,0.1
						c0.7-0.6,1.7-0.7,2.6-0.3c1.2,0.6,1.6,2,1.1,3.2l-0.2,0.5c0.5-0.1,1.1-0.1,1.6,0.2c1.2,0.6,1.6,2,1.1,3.2l-0.5,1l1.4,0.7
						c0.2,0.1,0.4,0.1,0.6,0c0.2-0.1,0.3-0.2,0.4-0.4c0.1-0.3,0.1-0.6-0.1-0.8l-0.4-0.5l0.4-0.5c0.1-0.1,0.1-0.2,0.2-0.3l0.4-0.7
						l2,1c0.4,0.2,0.8,0,1-0.3c0.2-0.4,0-0.8-0.3-1l-2-1l0.9-1.7l3.8,1.9c0.2,0.1,0.4,0.1,0.6,0c0.2-0.1,0.3-0.2,0.4-0.4
						c0.1-0.2,0.1-0.4,0-0.6c-0.1-0.2-0.2-0.3-0.4-0.4l-3.8-1.9l0.3-0.7c0-0.1,0.1-0.1,0.1-0.2l0.3-0.9l5.4,2.7
						c0.2,0.1,0.4,0.1,0.6,0c0.2-0.1,0.3-0.2,0.4-0.4c0.1-0.2,0.1-0.4,0-0.6c-0.1-0.2-0.2-0.3-0.4-0.4l-7.7-3.9
						c-0.4,0-0.8-0.1-1.2-0.2c-1.5-0.3-2.9-1.1-3.8-2.2l-2,0.2c-0.4,1.9-2.3,3.1-4.2,2.8l-1-0.2l-0.8-0.2l0.1-0.8l1.2-5.8l4.4-0.9
						l1.8-0.3l-2.3-0.2l-1.8-0.2l-6.3,2.1l-0.5-1.5l6.6-2.2l2.2,0.2l4.5,0.5l1.2,3.7l-3.1-0.7l-1.8,0.3l-3.4,0.7l-0.8,4l0.2,0
						c1,0.2,2-0.5,2.2-1.5l0.2-1.2l4.1-0.5l0.3,0.4c0.7,1,1.9,1.7,3.2,2c0.4,0.1,0.7,0.1,1.1,0.1l0.2,0l8,4c0.6,0.3,1,0.8,1.2,1.4
						c0.2,0.6,0.2,1.2-0.1,1.8c-0.3,0.6-0.8,1-1.4,1.2c-0.4,0.1-0.9,0.2-1.3,0.1c0,0.4-0.1,0.8-0.3,1.1c-0.3,0.6-0.8,1-1.4,1.2
						c-0.6,0.2-1.2,0.2-1.7-0.1c0,0.4-0.1,0.7-0.2,1.1c-0.6,1.2-2,1.6-3.2,1.1l-0.1,0c0,0.4-0.1,0.7-0.2,1c-0.3,0.6-0.8,1-1.4,1.2
						C28.7,37.8,28.4,37.9,28.2,37.9z M24.8,32.6c-0.1,0-0.2,0-0.2,0c-0.2,0.1-0.3,0.2-0.4,0.4l-0.5,1.1c-0.1,0.1-0.1,0.2-0.1,0.4
						l0.1,1.3l1.1-0.7c0.1-0.1,0.2-0.2,0.3-0.3l0.6-1.1c0.2-0.4,0-0.8-0.3-1C25.1,32.7,24.9,32.6,24.8,32.6z M22.4,28.8
						c-0.3,0-0.5,0.2-0.7,0.4l-1.6,3.2C20,32.5,20,32.6,20,32.8l0.1,1.3l1.1-0.7c0.1-0.1,0.2-0.2,0.3-0.3l1.6-3.2
						c0.2-0.4,0-0.8-0.3-1C22.6,28.8,22.5,28.8,22.4,28.8z M18.6,27.6c-0.1,0-0.2,0-0.2,0c-0.2,0.1-0.3,0.2-0.4,0.4l-1.3,2.6
						c-0.1,0.1-0.1,0.2-0.1,0.4l0.1,1.3l1.1-0.7c0.1-0.1,0.2-0.2,0.3-0.3l1.3-2.6c0.1-0.2,0.1-0.4,0-0.6c-0.1-0.2-0.2-0.3-0.4-0.4
						C18.8,27.7,18.7,27.6,18.6,27.6z M14.2,27.3c-0.1,0-0.2,0-0.2,0c-0.2,0.1-0.3,0.2-0.4,0.4L13,28.8c-0.1,0.1-0.1,0.2-0.1,0.4
						l0.1,1.3l1.1-0.7c0.1-0.1,0.2-0.2,0.3-0.3l0.6-1.1c0.1-0.2,0.1-0.4,0-0.6c-0.1-0.2-0.2-0.3-0.4-0.4
						C14.4,27.3,14.3,27.3,14.2,27.3z"/>
				</g>
				<g>
					<g>
						<path class="st0" d="M38.5,28.3l-8-4c0,0-0.1,0-0.1,0c-0.1,0-0.2,0-0.4,0l0,0c-0.1,0-0.2,0-0.3,0l-0.1,0c-0.1,0-0.2,0-0.3-0.1
							c-0.1,0-0.2,0-0.3-0.1L28.7,24c-0.1,0-0.1,0-0.2-0.1c-0.1,0-0.1,0-0.1,0l-0.3-0.1c-0.1,0-0.2-0.1-0.2-0.1l-0.1,0
							c0,0-0.1,0-0.1-0.1l-0.2-0.1c-0.1,0-0.1-0.1-0.2-0.1l-0.1,0c0,0-0.1-0.1-0.2-0.1l-0.2-0.1l0,0c-0.5-0.3-1-0.8-1.3-1.2
							l-2.1,0.2c-0.4,1.9-2.3,3.1-4.2,2.7l-0.9-0.2c0,0-0.1,0-0.1,0l-0.8-0.2l0.1-0.8l1.2-5.8l0.6-0.1l6-1.2l7,1.6l4.6-1.5l0.5,1.5
							l-5.1,1.7l-7.1-1.6l-5.1,1l-0.8,4l0.2,0c1,0.2,2-0.5,2.2-1.5l0.2-1.2l4-0.4l0.3,0.3c0.2,0.3,1,1,1.4,1.3l0.1,0.1
							c0,0,0.1,0,0.1,0.1l0.1,0c0,0,0.1,0,0.1,0.1c0,0,0,0,0.1,0l0.2,0.1c0,0,0.1,0,0.1,0.1l0.4,0.1c0.1,0,0.1,0,0.1,0l0.2,0
							c0,0,0,0,0.1,0c0.1,0,0.2,0,0.3,0.1c0.1,0,0.2,0,0.3,0.1c0.1,0,0.2,0,0.3,0l0,0c0.1,0,0.2,0,0.2,0c0.1,0,0.2,0,0.3,0l0.2,0
							l7.7,3.8l1.8-0.6l0.5,1.5L38.5,28.3z"/>
					</g>
					<g>
						<path class="st0" d="M24.3,36.9c-0.4,0-0.7-0.1-1.1-0.2c-1.2-0.6-1.6-2-1.1-3.2l0.6-1.1c0.3-0.6,0.8-1,1.4-1.2
							c0.6-0.2,1.2-0.2,1.8,0.1l0,0c0.6,0.3,1,0.8,1.2,1.4c0.2,0.6,0.2,1.2-0.1,1.8l-0.6,1.1C26,36.4,25.1,36.9,24.3,36.9z
							 M24.8,32.6c-0.1,0-0.2,0-0.2,0c-0.2,0.1-0.3,0.2-0.4,0.4l-0.5,1.1c-0.2,0.4,0,0.8,0.3,1c0.4,0.2,0.8,0,1-0.3l0.6-1.1
							c0.1-0.2,0.1-0.4,0-0.6c-0.1-0.2-0.2-0.3-0.4-0.4l0,0C25.1,32.7,24.9,32.6,24.8,32.6z"/>
					</g>
					<g>
						<path class="st0" d="M13.6,31.5c-0.4,0-0.7-0.1-1.1-0.3c-0.6-0.3-1-0.8-1.2-1.4c-0.2-0.6-0.2-1.2,0.1-1.8l0.5-1.1
							c0.3-0.6,0.8-1,1.4-1.2c0.6-0.2,1.2-0.2,1.8,0.1c1.2,0.6,1.6,2,1.1,3.2l-0.5,1.1c-0.3,0.6-0.8,1-1.4,1.2
							C14.1,31.5,13.9,31.5,13.6,31.5z M14.2,27.3c-0.1,0-0.2,0-0.2,0c-0.2,0.1-0.3,0.2-0.4,0.4L13,28.8c-0.1,0.2-0.1,0.4,0,0.6
							c0.1,0.2,0.2,0.3,0.4,0.4c0.2,0.1,0.4,0.1,0.6,0c0.2-0.1,0.3-0.2,0.4-0.4l0.6-1.1c0.2-0.4,0-0.8-0.3-1l0,0
							C14.4,27.3,14.3,27.3,14.2,27.3z"/>
					</g>
					<g>
						<path class="st0" d="M20.8,35.1c-0.4,0-0.7-0.1-1.1-0.3c-0.6-0.3-1-0.8-1.2-1.4c-0.2-0.6-0.2-1.2,0.1-1.8l1.6-3.2
							c0.3-0.6,0.8-1,1.4-1.2c0.6-0.2,1.2-0.2,1.8,0.1l0,0c1.2,0.6,1.6,2,1.1,3.2l-1.6,3.2c-0.3,0.6-0.8,1-1.4,1.2
							C21.3,35.1,21,35.1,20.8,35.1z M22.4,28.8c-0.1,0-0.2,0-0.2,0c-0.2,0.1-0.3,0.2-0.4,0.4l-1.6,3.2c-0.1,0.2-0.1,0.4,0,0.6
							c0.1,0.2,0.2,0.3,0.4,0.4c0.2,0.1,0.4,0.1,0.6,0c0.2-0.1,0.3-0.2,0.4-0.4l1.6-3.2c0.2-0.4,0-0.8-0.3-1
							C22.6,28.8,22.5,28.8,22.4,28.8z"/>
					</g>
					<g>
						<path class="st0" d="M17.3,33.4c-0.4,0-0.7-0.1-1.1-0.3c-1.2-0.6-1.6-2-1.1-3.2l1.3-2.6c0.3-0.6,0.8-1,1.4-1.2
							c0.6-0.2,1.2-0.2,1.8,0.1c0.6,0.3,1,0.8,1.2,1.4c0.2,0.6,0.2,1.2-0.1,1.8L19.4,32c-0.3,0.6-0.8,1-1.4,1.2
							C17.8,33.3,17.5,33.4,17.3,33.4z M18.6,27.6c-0.1,0-0.2,0-0.2,0c-0.2,0.1-0.3,0.2-0.4,0.4l-1.3,2.6c-0.2,0.4,0,0.8,0.3,1
							c0.2,0.1,0.4,0.1,0.6,0c0.2-0.1,0.3-0.2,0.4-0.4l1.3-2.6c0.1-0.2,0.1-0.4,0-0.6c-0.1-0.2-0.2-0.3-0.4-0.4l0,0
							C18.8,27.7,18.7,27.6,18.6,27.6z"/>
					</g>
				</g>
			</g>
		</g>
		<g>
			<g>
				<path class="st0" d="M40.9,30l-4.7-14l8.7-2.9l4.7,14L40.9,30z M38.3,17.1L41.9,28l5.6-1.9l-3.6-10.9L38.3,17.1z"/>
			</g>
		</g>
		<g>
			<path class="st0" d="M10.7,31.3L0.4,27.8l5.2-15.7L16,15.6L10.7,31.3z M2.5,26.8l7.3,2.4l4.2-12.6l-7.3-2.4L2.5,26.8z"/>
		</g>
		<g>
			
				<rect x="7.5" y="25.7" transform="matrix(0.3162 -0.9487 0.9487 0.3162 -19.4648 26.0154)" class="st0" width="1.6" height="1.7"/>
		</g>
		<g>
			
				<rect x="42.4" y="24.7" transform="matrix(0.9512 -0.3086 0.3086 0.9512 -5.7794 14.571)" class="st0" width="1.5" height="1.6"/>
		</g>
	</g>
</g>
</svg>
