<?xml version="1.0" encoding="utf-8"?>
<!-- Generator: Adobe Illustrator 22.1.0, SVG Export Plug-In . SVG Version: 6.00 Build 0)  -->
<svg version="1.1" id="Laag_1" xmlns="http://www.w3.org/2000/svg" xmlns:xlink="http://www.w3.org/1999/xlink" x="0px" y="0px"
	 viewBox="0 0 50 50" style="enable-background:new 0 0 50 50;" xml:space="preserve">
<style type="text/css">
	.st0{fill:#23375D;}
</style>
<g id="Icons_3_">
	<g>
		<g>
			<path class="st0" d="M14.4,22.4h-1.6v-7.3c0-6.8,5.6-12.4,12.4-12.4c6.8,0,12.4,5.6,12.4,12.4V16H36v-0.9c0-6-4.8-10.8-10.8-10.8
				S14.4,9.1,14.4,15.1V22.4z"/>
		</g>
		<g>
			<path class="st0" d="M39.1,41.8h-1.6v-4.5c0-1.6-1.5-2.8-3.3-2.8h-18c-1.8,0-3.3,1.3-3.3,2.8v4.5h-1.6v-4.5
				c0-2.4,2.2-4.4,4.9-4.4h18c2.7,0,4.9,2,4.9,4.4V41.8z"/>
		</g>
		<g>
			<path class="st0" d="M25.4,32.4c-4.7,0-8.7-3.2-9.9-7.7l1.5-0.4c1,3.8,4.4,6.5,8.3,6.5c4.7,0,8.6-3.9,8.6-8.6V15h1.6v7.1
				C35.6,27.8,31.1,32.4,25.4,32.4z"/>
		</g>
		<g>
			<path class="st0" d="M16.8,16.2h-1.6v-0.8c0-1.7,1.4-3.1,3.1-3.1h16c1.9,0,3.4-1.5,3.4-3.4V6.2h-6.1V4.6h7.7v4.3c0,2.8-2.3,5-5,5
				h-16c-0.8,0-1.5,0.7-1.5,1.5V16.2z"/>
		</g>
		<g>
			<path class="st0" d="M14.2,26.3H14c-1.8,0-3.3-1.5-3.3-3.3v-4.6c0-1.8,1.5-3.3,3.3-3.3h0.2c1.8,0,3.3,1.5,3.3,3.3V23
				C17.5,24.8,16,26.3,14.2,26.3z M14,16.6c-0.9,0-1.7,0.8-1.7,1.7V23c0,0.9,0.8,1.7,1.7,1.7h0.2c0.9,0,1.7-0.8,1.7-1.7v-4.6
				c0-0.9-0.8-1.7-1.7-1.7H14z"/>
		</g>
		<g>
			<path class="st0" d="M36,26.3h-0.2c-0.7,0-1.4-0.2-2-0.7l1-1.3c0.3,0.2,0.7,0.3,1,0.3H36c0.9,0,1.7-0.8,1.7-1.7v-4.6
				c0-0.9-0.8-1.7-1.7-1.7h-0.2c-0.3,0-0.5,0.1-0.7,0.2l-0.7-1.4c0.4-0.2,0.9-0.3,1.4-0.3H36c1.8,0,3.3,1.5,3.3,3.3V23
				C39.3,24.8,37.9,26.3,36,26.3z"/>
		</g>
		<g>
			<path class="st0" d="M14.4,22.4h-1.6v-7.3c0-6.8,5.6-12.4,12.4-12.4v1.6c-6,0-10.8,4.8-10.8,10.8V22.4z"/>
		</g>
		<g>
			<polygon class="st0" points="26.9,37.3 23.1,37.3 21.5,34.4 22.9,33.6 24.1,35.7 26,35.7 27.2,33.6 28.5,34.4 			"/>
		</g>
		<g>
			<polygon class="st0" points="25.1,47.3 21.7,43.9 23,36.3 24.6,36.6 23.4,43.3 25.1,45 26.6,43.4 25.4,36.6 27,36.3 28.3,43.9 
							"/>
		</g>
		<g>
			<path class="st0" d="M34.4,28.8h-7.2v-1.6h7.2c0.9,0,1.6-0.7,1.6-1.6h1.6C37.6,27.4,36.1,28.8,34.4,28.8z"/>
		</g>
		<g>
			<rect x="25" y="18.8" class="st0" width="1.6" height="5"/>
		</g>
	</g>
</g>
</svg>
