<?xml version="1.0" encoding="utf-8"?>
<!-- Generator: Adobe Illustrator 22.1.0, SVG Export Plug-In . SVG Version: 6.00 Build 0)  -->
<svg version="1.1" id="Laag_1" xmlns="http://www.w3.org/2000/svg" xmlns:xlink="http://www.w3.org/1999/xlink" x="0px" y="0px"
	 viewBox="0 0 50 50" style="enable-background:new 0 0 50 50;" xml:space="preserve">
<style type="text/css">
	.st0{fill:#23375D;}
</style>
<g id="Icons">
	<g>
		<g>
			<g>
				<g>
					<path class="st0" d="M24.1,31.3H0.9v-28C0.9,2,1.9,1,3.1,1h43.7c1.2,0,2.2,1,2.2,2.2v27.1h-2V3.2C47.1,3.1,47,3,46.9,3H3.1
						C3,3,2.8,3.1,2.8,3.2v26.1h21.3V31.3z"/>
				</g>
				<g>
					<polygon class="st0" points="24.1,27.6 4.5,27.6 4.5,4.7 45.4,4.7 45.4,19.7 43.5,19.7 43.5,6.6 6.5,6.6 6.5,25.6 24.1,25.6 
											"/>
				</g>
				<g>
					<path class="st0" d="M24.1,36.7H3.4c-1.3,0-2.5-1.2-2.5-2.6v-4.9h23.2v2H2.9v2.9c0,0.2,0.4,0.6,0.5,0.6h20.7V36.7z"/>
				</g>
				<g>
					<path class="st0" d="M18.1,42.7l-0.8-1.8c0.5-0.2,0.9-0.4,1.1-0.5l0.1,0c0.1,0,0.1-0.1,0.2-0.1c0-0.1,0.1-0.2,0.1-0.5
						c0.1-0.5,0.1-1.6,0.1-2.4c0-0.6,0-1.2,0-1.6l2,0.2c0,0.3,0,0.9,0,1.5c0,1,0,2.1-0.1,2.8c-0.2,1.2-0.5,1.5-1.3,1.9l-0.1,0
						C19,42.3,18.5,42.5,18.1,42.7z"/>
				</g>
				<g>
					<rect x="16.4" y="40.7" class="st0" width="7.7" height="2"/>
				</g>
			</g>
		</g>
		<g>
			<g>
				<path class="st0" d="M43.5,49H27.4c-1.1,0-1.9-0.9-1.9-1.9V23.6c0-1.1,0.9-1.9,1.9-1.9h16.1c1.1,0,1.9,0.9,1.9,1.9V29h-2v-5.4
					l-16.1,0l0,23.5l16.1,0V49z"/>
			</g>
			<g>
				<polygon class="st0" points="35.7,45.6 28.5,45.6 28.5,24.9 41.8,24.9 41.8,26.8 30.5,26.8 30.5,43.6 35.7,43.6 				"/>
			</g>
		</g>
		<g>
			<g>
				<path class="st0" d="M47.5,49h-8.5c-0.9,0-1.6-0.7-1.6-1.6V29.6c0-0.9,0.7-1.6,1.6-1.6h8.5c0.9,0,1.6,0.7,1.6,1.6l0,17.8
					C49.1,48.3,48.4,49,47.5,49z M39.4,47h7.7l0-17.1h-7.7V47z"/>
			</g>
			<g>
				<rect x="39.2" y="43.4" class="st0" width="8.9" height="2"/>
			</g>
		</g>
	</g>
</g>
</svg>
